<svg width="28" height="29" viewBox="0 0 28 29" fill="none" xmlns="http://www.w3.org/2000/svg">
<path d="M14 0.200195C10.2878 0.200195 6.72437 1.6761 4.10156 4.30066C1.47606 6.92628 0.000751294 10.4871 0 14.2002C0 17.9117 1.47656 21.4752 4.10156 24.0997C6.72437 26.7243 10.2878 28.2002 14 28.2002C17.7122 28.2002 21.2756 26.7243 23.8984 24.0997C26.5234 21.4752 28 17.9117 28 14.2002C28 10.4887 26.5234 6.92523 23.8984 4.30066C21.2756 1.6761 17.7122 0.200195 14 0.200195Z" fill="url(#paint0_linear_159_10672)"/>
<path d="M6.33723 14.0522C10.4191 12.2742 13.1404 11.102 14.501 10.5356C18.3904 8.9184 19.1975 8.63753 19.7247 8.62801C19.8407 8.62615 20.0988 8.65481 20.2672 8.79098C20.4072 8.90582 20.4466 9.06114 20.4663 9.17018C20.4838 9.27912 20.5079 9.5274 20.4882 9.72122C20.2782 11.935 19.366 17.307 18.9022 19.7866C18.7075 20.8357 18.3204 21.1874 17.9463 21.2218C17.1325 21.2966 16.5157 20.6845 15.7282 20.1685C14.4966 19.3607 13.801 18.858 12.6044 18.0698C11.2219 17.1589 12.1188 16.6582 12.9063 15.8401C13.1119 15.6259 16.695 12.3677 16.7629 12.0721C16.7716 12.0352 16.7804 11.8973 16.6972 11.8247C16.6163 11.7519 16.496 11.7768 16.4085 11.7965C16.2838 11.8245 14.3172 13.1256 10.5022 15.6997C9.94442 16.0833 9.43911 16.2704 8.98411 16.2605C8.48536 16.2498 7.52286 15.9779 6.80755 15.7456C5.93255 15.4606 5.23473 15.3098 5.29598 14.8257C5.32661 14.5737 5.67442 14.3158 6.33723 14.0522Z" fill="white"/>
<defs>
<linearGradient id="paint0_linear_159_10672" x1="1400" y1="0.200195" x2="1400" y2="2800.2" gradientUnits="userSpaceOnUse">
<stop stop-color="#2AABEE"/>
<stop offset="1" stop-color="#229ED9"/>
</linearGradient>
</defs>
</svg>
