<svg width="14" height="10" viewBox="0 0 14 10" fill="none" xmlns="http://www.w3.org/2000/svg">
<path d="M5.4439 8.26785L5.08048 7.88332L1.36351 3.95034C1.36351 3.95034 1.36351 3.95034 1.3635 3.95033C1.17441 3.75028 0.857709 3.74067 0.656099 3.93053C0.456195 4.11971 0.446728 4.43641 0.636722 4.63793L5.08029 9.34649C5.17207 9.44361 5.30229 9.4999 5.44387 9.4999C5.587 9.4999 5.71655 9.44326 5.80661 9.34745L5.80736 9.34665L13.3631 1.34392L5.4439 8.26785ZM5.4439 8.26785L5.80729 7.88329M5.4439 8.26785L5.80729 7.88329M5.80729 7.88329L12.6363 0.656337C12.8254 0.45627 13.1421 0.446659 13.3437 0.636533M5.80729 7.88329L13.3437 0.636533M13.3437 0.636533C13.5435 0.825633 13.5531 1.14213 13.3633 1.34366L13.3437 0.636533Z" fill="#FF8906" stroke="#FF8906"/>
</svg>
