<svg width="28" height="29" viewBox="0 0 28 29" fill="none" xmlns="http://www.w3.org/2000/svg">
<circle cx="14" cy="14.2002" r="14" fill="#263238" fill-opacity="0.05"/>
<path d="M18.0625 9.2002H7.125C6.87636 9.2002 6.6379 9.29897 6.46209 9.47478C6.28627 9.6506 6.1875 9.88905 6.1875 10.1377V21.0752C6.1875 21.3238 6.28627 21.5623 6.46209 21.7381C6.6379 21.9139 6.87636 22.0127 7.125 22.0127H18.0625C18.3111 22.0127 18.5496 21.9139 18.7254 21.7381C18.9012 21.5623 19 21.3238 19 21.0752V10.1377C19 9.88905 18.9012 9.6506 18.7254 9.47478C18.5496 9.29897 18.3111 9.2002 18.0625 9.2002ZM17.125 20.1377H8.0625V11.0752H17.125V20.1377ZM21.8125 7.3252V18.2627C21.8125 18.5113 21.7137 18.7498 21.5379 18.9256C21.3621 19.1014 21.1236 19.2002 20.875 19.2002C20.6264 19.2002 20.3879 19.1014 20.2121 18.9256C20.0363 18.7498 19.9375 18.5113 19.9375 18.2627V8.2627H9.9375C9.68886 8.2627 9.4504 8.16392 9.27459 7.98811C9.09877 7.81229 9 7.57384 9 7.3252C9 7.07655 9.09877 6.8381 9.27459 6.66228C9.4504 6.48647 9.68886 6.3877 9.9375 6.3877H20.875C21.1236 6.3877 21.3621 6.48647 21.5379 6.66228C21.7137 6.8381 21.8125 7.07655 21.8125 7.3252Z" fill="#263238" fill-opacity="0.5"/>
</svg>
