<svg width="28" height="29" viewBox="0 0 28 29" fill="none" xmlns="http://www.w3.org/2000/svg">
<circle cx="14" cy="14.2002" r="14" fill="#FE8705"/>
<path d="M18.3664 16.1552C18.7338 15.7879 18.7862 15.2632 18.4714 14.7385C18.209 14.3187 17.7368 14.1088 17.2121 14.2137C17.0022 14.2662 16.7923 14.3712 16.5824 14.5286C14.9557 15.6305 12.7519 15.578 11.1252 14.4761C11.0203 14.4236 10.9153 14.3712 10.8104 14.3187C10.2332 14.0563 9.65598 14.1613 9.34115 14.686C8.97384 15.2107 9.0263 15.7879 9.49856 16.2602C9.6035 16.3651 9.70845 16.4176 9.76092 16.5225L9.8134 16.575C10.548 17.1522 11.4401 17.5195 12.5945 17.6769L11.9123 18.3591C11.3351 18.9363 10.7054 19.566 10.1282 20.1432C9.97082 20.3006 9.76092 20.5629 9.76092 20.9302C9.76092 21.4025 10.0233 21.8748 10.4955 22.0846C10.653 22.1896 10.8104 22.1896 10.9678 22.1896C11.2302 22.1896 11.545 22.0846 11.7549 21.8223C12.542 21.0352 13.1717 20.4055 13.8013 19.7758C13.8538 19.7234 13.8538 19.7234 13.8538 19.7234C13.8538 19.7234 13.9063 19.7234 13.9063 19.7758C14.3261 20.2481 14.7983 20.6679 15.2181 21.1401C15.428 21.35 15.6379 21.5599 15.8478 21.7698C16.1101 22.0322 16.32 22.1371 16.6348 22.1371C17.1071 22.1896 17.6318 21.8748 17.8417 21.4025C18.0516 20.9827 17.9467 20.458 17.5794 20.1432C17.0546 19.6184 16.5299 19.0412 15.9527 18.5165L15.0607 17.6245C15.5329 17.572 16.0577 17.467 16.5299 17.2572C17.317 16.9948 17.8942 16.6275 18.3664 16.1552Z" fill="white"/>
<path d="M13.8538 14.686C16.1101 14.686 17.9467 12.9019 17.9467 10.6456C17.9467 9.54366 17.5269 8.49421 16.7398 7.70712C15.9527 6.92003 14.9557 6.50024 13.9063 6.50024C11.6499 6.50024 9.86587 8.33679 9.8134 10.5406C9.8134 11.6426 10.2332 12.6395 11.0203 13.4266C11.7549 14.2662 12.7519 14.686 13.8538 14.686ZM12.6994 9.43872C13.0142 9.12388 13.434 8.96646 13.8538 8.96646C14.7983 8.96646 15.4805 9.70108 15.4805 10.5931C15.4805 11.5376 14.7458 12.2198 13.8538 12.2198C12.9093 12.2198 12.2271 11.4852 12.2271 10.5931C12.2271 10.1733 12.3846 9.75356 12.6994 9.43872Z" fill="white"/>
<path d="M18.3664 16.1552C18.7338 15.7879 18.7862 15.2632 18.4714 14.7385C18.209 14.3187 17.7368 14.1088 17.2121 14.2137C17.0022 14.2662 16.7923 14.3712 16.5824 14.5286C14.9557 15.6305 12.7519 15.578 11.1252 14.4761C11.0203 14.4236 10.9153 14.3712 10.8104 14.3187C10.2332 14.0563 9.65598 14.1613 9.34115 14.686C8.97384 15.2107 9.0263 15.7879 9.49856 16.2602C9.6035 16.3651 9.70845 16.4176 9.76092 16.5225L9.8134 16.575C10.548 17.1522 11.4401 17.5195 12.5945 17.6769L11.9123 18.3591C11.3351 18.9363 10.7054 19.566 10.1282 20.1432C9.97082 20.3006 9.76092 20.5629 9.76092 20.9302C9.76092 21.4025 10.0233 21.8748 10.4955 22.0846C10.653 22.1896 10.8104 22.1896 10.9678 22.1896C11.2302 22.1896 11.545 22.0846 11.7549 21.8223C12.542 21.0352 13.1717 20.4055 13.8013 19.7758C13.8538 19.7234 13.8538 19.7234 13.8538 19.7234C13.8538 19.7234 13.9063 19.7234 13.9063 19.7758C14.3261 20.2481 14.7983 20.6679 15.2181 21.1401C15.428 21.35 15.6379 21.5599 15.8478 21.7698C16.1101 22.0322 16.32 22.1371 16.6348 22.1371C17.1071 22.1896 17.6318 21.8748 17.8417 21.4025C18.0516 20.9827 17.9467 20.458 17.5794 20.1432C17.0546 19.6184 16.5299 19.0412 15.9527 18.5165L15.0607 17.6245C15.5329 17.572 16.0577 17.467 16.5299 17.2572C17.317 16.9948 17.8942 16.6275 18.3664 16.1552Z" fill="white"/>
</svg>
