<svg width="49" height="48" viewBox="0 0 49 48" fill="none" xmlns="http://www.w3.org/2000/svg">
<circle cx="24.5" cy="24" r="24" fill="#0077FF"/>
<path d="M5.62598 23.4873C5.62598 15.0515 5.62598 10.8335 8.24666 8.21285C10.8673 5.59216 15.0853 5.59216 23.5211 5.59216H25.0124C33.4482 5.59216 37.6662 5.59216 40.2868 8.21285C42.9075 10.8335 42.9075 15.0515 42.9075 23.4873V24.9786C42.9075 33.4144 42.9075 37.6324 40.2868 40.253C37.6662 42.8737 33.4482 42.8737 25.0124 42.8737H23.5211C15.0853 42.8737 10.8673 42.8737 8.24666 40.253C5.62598 37.6324 5.62598 33.4144 5.62598 24.9786V23.4873Z" fill="#0077FF"/>
<path d="M25.4629 32.4505C16.9658 32.4505 12.1192 26.6252 11.9173 16.932H16.1736C16.3134 24.0466 19.4512 27.0602 21.9366 27.6815V16.932H25.9445V23.0679C28.3989 22.8039 30.9772 20.0078 31.8471 16.932H35.855C35.1871 20.7223 32.3909 23.5184 30.4026 24.6679C32.3909 25.6 35.5756 28.0388 36.7872 32.4505H32.3754C31.4279 29.499 29.0669 27.2155 25.9445 26.9048V32.4505H25.4629Z" fill="white"/>
</svg>
