<svg width="28" height="29" viewBox="0 0 28 29" fill="none" xmlns="http://www.w3.org/2000/svg">
<g clip-path="url(#clip0_159_10670)">
<path d="M14 0.200195C6.26792 0.200195 0 6.46811 0 14.2002C0 21.9323 6.26792 28.2002 14 28.2002C21.7321 28.2002 28 21.9323 28 14.2002C28 6.46811 21.7321 0.200195 14 0.200195ZM19.3842 15.9954C19.3842 15.9954 20.6223 17.2175 20.9271 17.7848C20.9358 17.7964 20.9402 17.8081 20.9431 17.8139C21.0671 18.0225 21.0963 18.1844 21.035 18.3054C20.9329 18.5067 20.5829 18.6058 20.4633 18.6146H18.2758C18.1242 18.6146 17.8062 18.5752 17.4212 18.3098C17.1252 18.1027 16.8335 17.7629 16.5492 17.4319C16.1248 16.9389 15.7573 16.5131 15.3869 16.5131C15.3398 16.513 15.2931 16.5204 15.2483 16.535C14.9683 16.6254 14.6096 17.025 14.6096 18.0896C14.6096 18.4221 14.3471 18.6131 14.1619 18.6131H13.16C12.8187 18.6131 11.041 18.4935 9.46604 16.8325C7.53812 14.7981 5.80271 10.7177 5.78812 10.6798C5.67875 10.4158 5.90479 10.2744 6.15125 10.2744H8.36062C8.65521 10.2744 8.75146 10.4537 8.81854 10.6127C8.89729 10.7979 9.18604 11.5344 9.66 12.3627C10.4285 13.7131 10.8996 14.2614 11.2773 14.2614C11.3481 14.2606 11.4177 14.2426 11.48 14.2089C11.9729 13.9348 11.881 12.1775 11.8592 11.8129C11.8592 11.7444 11.8577 11.0269 11.6054 10.6827C11.4246 10.4333 11.1169 10.3385 10.9302 10.3035C11.0058 10.1993 11.1053 10.1147 11.2204 10.0571C11.5587 9.8879 12.1683 9.86311 12.7735 9.86311H13.1104C13.7667 9.87186 13.9358 9.91415 14.1735 9.97394C14.6548 10.0892 14.665 10.3998 14.6227 11.4629C14.6096 11.7648 14.5965 12.106 14.5965 12.5085C14.5965 12.596 14.5921 12.6894 14.5921 12.7885C14.5775 13.3296 14.56 13.9435 14.9421 14.1958C14.9919 14.2271 15.0495 14.2437 15.1083 14.2439C15.241 14.2439 15.6406 14.2439 16.7227 12.3875C17.0564 11.7899 17.3464 11.169 17.5904 10.5296C17.6123 10.4917 17.6765 10.375 17.7523 10.3298C17.8083 10.3012 17.8703 10.2867 17.9331 10.2875H20.5304C20.8133 10.2875 21.0073 10.3298 21.0437 10.4392C21.1079 10.6127 21.0321 11.1421 19.8465 12.7477L19.3171 13.4462C18.2423 14.855 18.2423 14.9264 19.3842 15.9954Z" fill="#0077FF"/>
</g>
<defs>
<clipPath id="clip0_159_10670">
<rect width="28" height="28" fill="white" transform="translate(0 0.200195)"/>
</clipPath>
</defs>
</svg>
